# xmcd CD database file
#
# Track frame offsets:
#	150
#	11992
#	22256
#	32901
#	41519
#	52832
#	62457
#	70940
#	80828
#	92866
#	103794
#	113858
#	121326
#	131037
#	141545
#	153784
#	165827
#	176019
#	186524
#	196897
#	208043
#	217493
#	228572
#	239357
#
# Disc length: 3329 seconds
#
# Revision: 0
# Processed by: cddbd v1.5.2PL0 Copyright (c) Steve Scherf et al.
# Submitted via: Feurio! 1.68 - http://www.feurio.com
#
DISCID=680cff18
DTITLE=Fats Domino - Fats Domino Swings
DYEAR=1900
DGENRE=Swing and Latin Jazz
TTITLE0=The Fat Man
TTITLE1=Blue Monday
TTITLE2=Blueberry Hill
TTITLE3=I'm In Love Again
TTITLE4=Going To The River
TTITLE5=My Blue Heaven
TTITLE6=Bo Weevil
TTITLE7=Goin' Home
TTITLE8=Please Don't Leave Me
TTITLE9=Ain't That A Shame
TTITLE10=I'm Walking
TTITLE11=Whole Lotta Loving
TTITLE12=So Loing
TTITLE13=When My Dreamboat Comes Home
TTITLE14=I'm In The Mood For Love
TTITLE15=Don't Blame It On Me
TTITLE16=Tired Of Crying
TTITLE17=All By Myself
TTITLE18=Poor Me
TTITLE19=Coquette
TTITLE20=I Can't Go On (Rosaline)
TTITLE21=When The Saints Go Marcing In
TTITLE22=Tellin' Lies
TTITLE23=Tired Of Crying
EXTD=
EXTT0=
EXTT1=
EXTT2=
EXTT3=
EXTT4=
EXTT5=
EXTT6=
EXTT7=
EXTT8=
EXTT9=
EXTT10=
EXTT11=
EXTT12=
EXTT13=
EXTT14=
EXTT15=
EXTT16=
EXTT17=
EXTT18=
EXTT19=
EXTT20=
EXTT21=
EXTT22=
EXTT23=
PLAYORDER=
